# xmcd
#
# Track frame offsets:
#	150
#	11836
#	26004
#	42361
#	60057
#	73443
#	86581
#	103556
#	114614
#	130850
#	146158
#	160607
#
# Disc length: 2380 seconds
#
# Revision: 0
# Processed by: cddbd v1.5.2PL0 Copyright (c) Steve Scherf et al.
# Submitted via: EasyCDDAExtractor 8.2.3.1
#
DISCID=a1094a0c
DTITLE=The Hooker Family - We Stand In Awe
DYEAR=2006
DGENRE=Gospel
TTITLE0=Alleluia To The Lamb
TTITLE1=He Is God, He Is Lord
TTITLE2=He Will Carry You
TTITLE3=His Life For Mine
TTITLE4=We Stand In Awe
TTITLE5=I Wish I Could Have Been There
TTITLE6=O Glorious Love
TTITLE7=Shut The Do
TTITLE8=He Gave Me Water
TTITLE9=The Healer
TTITLE10=Someday
TTITLE11=The Answer Is Christ
EXTD=
EXTT0=
EXTT1=
EXTT2=
EXTT3=
EXTT4=
EXTT5=
EXTT6=
EXTT7=
EXTT8=
EXTT9=
EXTT10=
EXTT11=
PLAYORDER=
